<?xml version="1.0" standalone="no"?>
<!DOCTYPE svg PUBLIC "-//W3C//DTD SVG 20010904//EN"
 "http://www.w3.org/TR/2001/REC-SVG-20010904/DTD/svg10.dtd">
<svg version="1.0" xmlns="http://www.w3.org/2000/svg"
 width="256.000000pt" height="256.000000pt" viewBox="0 0 256.000000 256.000000"
 preserveAspectRatio="xMidYMid meet">
<metadata>
Created by potrace 1.14, written by Peter Selinger 2001-2017
</metadata>
<g transform="translate(0.000000,256.000000) scale(0.100000,-0.100000)"
fill="#000000" stroke="none">
<path d="M1365 2549 c-22 -5 -50 -11 -62 -14 -13 -3 -31 -7 -40 -9 -10 -2 -31
-10 -48 -16 -16 -6 -37 -13 -46 -15 -18 -4 -112 -46 -119 -54 -3 -3 -31 -19
-62 -35 -32 -16 -58 -32 -58 -37 0 -5 -5 -9 -11 -9 -9 0 -45 -26 -154 -110
-63 -49 -247 -245 -295 -315 -163 -237 -242 -404 -295 -629 -20 -85 -23 -120
-21 -260 2 -88 6 -174 10 -191 11 -50 68 -220 76 -225 4 -3 15 -24 25 -47 11
-24 22 -43 27 -43 4 0 8 -7 8 -15 0 -8 5 -15 10 -15 6 0 10 -4 10 -10 0 -13
30 -49 105 -125 106 -109 171 -147 227 -136 56 12 73 41 128 212 59 187 214
606 288 784 118 283 397 866 499 1043 74 129 86 166 68 208 -24 57 -48 68
-143 70 -48 0 -105 -3 -127 -7z"/>
<path d="M1945 2326 c-21 -19 -36 -53 -70 -167 -24 -79 -71 -220 -105 -314
-34 -93 -72 -199 -85 -235 -13 -36 -45 -119 -70 -185 -26 -66 -48 -124 -49
-130 -1 -5 -4 -15 -8 -20 -3 -6 -24 -55 -46 -110 -77 -192 -311 -682 -440
-922 -27 -51 -48 -93 -47 -95 2 -2 5 -16 7 -33 7 -60 37 -84 125 -101 38 -7
117 -11 182 -9 100 3 133 6 186 19 6 2 24 6 40 10 17 4 37 10 45 13 8 4 17 7
20 8 48 16 153 66 160 74 3 4 22 17 43 29 51 29 57 35 156 132 100 100 172
199 241 338 80 161 151 397 166 554 3 34 8 66 10 70 6 9 5 298 0 343 -4 35
-15 109 -21 145 -16 92 -59 233 -78 258 -5 6 -6 12 -3 12 9 0 -75 154 -86 158
-4 2 -8 10 -8 18 0 7 -33 47 -73 89 -69 72 -74 75 -118 75 -34 0 -53 -6 -74
-24z"/>
</g>
</svg>
